<?xml version="1.0" ?><svg enable-background="new 0 0 52 52" id="Layer_1" version="1.1" viewBox="0 0 52 52" xml:space="preserve" xmlns="http://www.w3.org/2000/svg" xmlns:xlink="http://www.w3.org/1999/xlink"><g><g><path d="M13.2770309,33.9904633c8.5019512-0.0334587,17.0039043-0.0669174,25.5058556-0.1003761    c-0.4166679-0.4166641-0.8333321-0.8333321-1.25-1.25c0.0885658,5.5520554,0.109623,11.1034279,0.0631866,16.6559753    c0.4166679-0.4166679,0.8333321-0.8333359,1.25-1.25c-8.6853981,0.1123314-17.3709641,0.1695366-26.0570908,0.171608    c0.416667,0.4166641,0.833334,0.8333321,1.25,1.25c-0.1108313-5.7789078-0.1355076-11.5567207-0.0740433-17.3363342    c0.0171127-1.6091862-2.4828749-1.6103725-2.5,0c-0.0614653,5.779644-0.036787,11.557457,0.0740433,17.3363342    c0.0129547,0.6754417,0.5622044,1.250164,1.25,1.25c8.6861258-0.0020714,17.3716888-0.0592766,26.0570908-0.171608    c0.6798553-0.0087929,1.244278-0.5656548,1.25-1.25c0.0464363-5.5525665,0.0253754-11.1039391-0.0631866-16.6559753    c-0.010746-0.6736145-0.5639763-1.2526989-1.25-1.2499981c-8.5019512,0.0334587-17.0039043,0.0669174-25.5058556,0.1003761    C11.6686983,31.4967937,11.6654873,33.9968071,13.2770309,33.9904633L13.2770309,33.9904633z" fill="#231F20"/></g><g><path d="M20.026865,39.1274452c3.8610401-0.0354156,7.7220821-0.0708313,11.5831223-0.1062469    c1.6078587-0.0147476,1.6117992-2.5147858,0-2.5c-3.8610401,0.0354156-7.7220821,0.0708313-11.5831223,0.1062469    C18.4190044,36.6421928,18.4150677,39.142231,20.026865,39.1274452L20.026865,39.1274452z" fill="#231F20"/></g><g><path d="M20.0268974,44.9644012c3.7222233,0,7.4444447,0,11.1666679,0c1.6086311,0,1.6112938-2.5,0-2.5    c-3.7222233,0-7.4444447,0-11.1666679,0C18.4182682,42.4644012,18.4156036,44.9644012,20.0268974,44.9644012    L20.0268974,44.9644012z" fill="#231F20"/></g><g><path d="M15.7774763,20.2335186c6.6657686-0.1904507,13.3311968-0.2477093,19.9992371-0.1717987    c1.609211,0.0183201,1.6102943-2.4816666,0-2.5c-6.6680546-0.0759106-13.3334846-0.018652-19.9992371,0.1717987    C14.1721363,17.7793865,14.1655092,20.2795753,15.7774763,20.2335186L15.7774763,20.2335186z" fill="#231F20"/></g><g><path d="M18.2775421,18.2975273C18.276844,13.1384249,18.276144,7.9793239,18.275444,2.8202221    c-0.416666,0.4166667-0.8333321,0.8333333-1.25,1.2500002c5.8999176-0.3019242,11.7972202-0.3663425,17.7022743-0.1933749    c-0.4166641-0.4166665-0.8333321-0.8333333-1.25-1.25c0.0404892,5.2792044,0.0809784,10.5584097,0.1214676,15.8376131    c0.0123329,1.6080055,2.5123634,1.6117344,2.5,0c-0.0404892-5.2792034-0.0809784-10.5584087-0.1214676-15.8376131    c-0.0052948-0.6903836-0.56884-1.2300478-1.25-1.2499999C28.8226147,1.2038783,22.925312,1.2683008,17.025444,1.5702221    c-0.6747761,0.0345312-1.2500954,0.5447176-1.249999,1.25c0.000699,5.1591015,0.0013981,10.318203,0.0020971,15.4773054    C15.7777605,19.9061489,18.2777615,19.9088306,18.2775421,18.2975273L18.2775421,18.2975273z" fill="#231F20"/></g><g><path d="M35.859993,11.8333826c4.0900955-0.066699,8.0026207-0.9307232,10.571579,3.0056095    c1.8238983,2.7947035,1.4823685,6.6674852,1.5003242,9.8925219c0.0171089,3.0729427,0.3894234,6.425581,0.026165,9.4738274    c-0.3373756,2.8310699-0.087841,2.7009811-2.8761749,3.0929604c-1.7231789,0.2422447-3.6561279-0.0008621-5.3879623-0.0012703    c-1.6086464-0.0003815-1.6112785,2.4996185,0,2.5c2.9767494,0.0007019,6.8241119,0.6034279,9.7364693-0.152668    c0.418705-0.1087036,0.7604256-0.4577065,0.8730507-0.8730507c0.976326-3.6005592,0.14534-8.4129887,0.1336861-12.1450329    c-0.0111656-3.5753269,0.3157921-7.509716-0.7838287-10.9693785c-2.1792488-6.8564377-7.6824684-6.423171-13.7933083-6.3235188    C34.2529182,9.3595896,34.2479897,11.8596697,35.859993,11.8333826L35.859993,11.8333826z" fill="#231F20"/></g><g><path d="M16.6068287,8.9824753c-3.8509989,0.3823385-9.8677702-0.6308241-12.8182011,2.3805075    c-2.886837,2.9464245-2.5737121,8.0592546-2.5411777,11.827796c0.0265166,3.0714664,0.1502665,6.1451321,0.2277762,9.2157345    c0.0431157,1.7080612-0.5466711,5.3251305,0.2092724,6.8538971c1.4227765,2.8773232,6.7240429,1.4578476,9.337163,1.3688736    c1.6044111-0.0546265,1.6117954-2.5548782,0-2.5c-3.6899872,0.1256409-6.8712792,1.2161751-6.9847021-3.2771721    c-0.0826316-3.27351-0.1794875-6.5470066-0.2479024-9.820837c-0.0581074-2.7805958-0.7036569-7.1012764,0.5506654-9.6346321    c2.2294331-4.5027866,8.1772566-3.5081148,12.267107-3.9141674C18.1929436,11.3250008,18.2092361,8.8233833,16.6068287,8.9824753    L16.6068287,8.9824753z" fill="#231F20"/></g></g></svg>